#!OML:ASF H:\Terrain\Patient Classification 1\Terrain2\Thursday\justin.ASF
:FULLY-SPECIFIED
:DEGREES
2795
root 29.8085 17.7395 -0.146874 -2.56412 10.1449 358.287
lowerback 4.61467 0.364696 -0.0808463
upperback 2.32489 0.501329 2.08532
thorax -0.218748 0.241847 2.1621
lowerneck -14.3152 -3.47013 -9.71481
upperneck 32.769 -3.91499 5.1804
head 13.8299 -2.18751 3.15599
rclavicle -7.67806e-015 -2.38542e-015
rhumerus -27.9468 -9.82437 -79.7613
rradius 27.7294
rwrist -8.44331
rhand -19.9766 13.4976
rfingers 7.12502
rthumb 6.36236 -16.3868
lclavicle -7.67806e-015 -2.38542e-015
lhumerus -34.3474 1.88335 84.9634
lradius 29.6506
lwrist 1.87775
lhand -10.5088 28.3732
lfingers 7.12502
lthumb 15.4936 57.7724
rfemur -8.54943 7.11408 20.8247
rtibia 32.8186
rfoot -20.5436 7.83277
rtoes 16.2369
lfemur -6.7642 -5.21626 -16.4189
ltibia 28.4035
lfoot -16.2615 -16.6364
ltoes 6.92932
2796
root 29.8232 17.7461 -0.153388 -2.54143 9.95168 357.955
lowerback 4.64223 0.384726 0.276464
upperback 2.25699 0.545047 2.20201
thorax -0.303367 0.266435 2.07872
lowerneck -14.1967 -3.42662 -9.70258
upperneck 32.703 -3.82123 5.053
head 13.7628 -2.16239 3.116
rclavicle -1.9133e-015 7.55382e-015
rhumerus -28.198 -10.1327 -79.5466
rradius 27.4518
rwrist -7.61585
rhand -19.4851 13.2712
rfingers 7.12502
rthumb 6.83693 -16.5984
lclavicle -1.9133e-015 7.55382e-015
lhumerus -34.4245 1.83101 84.9547
lradius 29.9953
lwrist 2.71336
lhand -12.578 26.5471
lfingers 7.12502
lthumb 13.5 56.0895
rfemur -8.67779 7.24613 21.1104
rtibia 32.8216
rfoot -20.4357 8.03564
rtoes 16.1951
lfemur -6.81965 -5.22014 -16.1227
ltibia 28.3997
lfoot -16.4072 -16.3973
ltoes 6.02578
2797
root 29.8376 17.7465 -0.157169 -2.65285 9.67806 358.075
lowerback 4.79491 0.451076 0.146857
upperback 2.25398 0.630234 2.20065
thorax -0.395811 0.308525 2.14496
lowerneck -14.01 -3.35479 -9.78001
upperneck 32.6945 -3.71412 5.06168
head 13.7097 -2.12615 3.15115
rclavicle 8.74653e-015 2.26615e-014
rhumerus -28.5475 -10.3627 -79.3749
rradius 27.3325
rwrist -7.02864
rhand -19.4172 12.0961
rfingers 7.12502
rthumb 6.90238 -17.7714
lclavicle 8.74653e-015 2.26615e-014
lhumerus -34.395 1.9639 84.8545
lradius 30.2273
lwrist 2.97654
lhand -15.9117 22.844
lfingers 7.12502
lthumb 10.2854 52.5725
rfemur -8.57027 7.43639 20.9336
rtibia 32.8552
rfoot -20.3098 8.24988
rtoes 16.6213
lfemur -6.62013 -5.30125 -16.3603
ltibia 28.3733
lfoot -16.4945 -15.9758
ltoes 5.77036
2798
root 29.8552 17.7447 -0.16533 -2.61456 9.47535 358.763
lowerback 4.87967 0.538069 -0.470921
upperback 2.34125 0.717167 2.02279
thorax -0.361642 0.347934 2.30471
lowerneck -14.1551 -3.3672 -9.79883
upperneck 32.7679 -3.68617 4.98414
head 13.7711 -2.1261 3.12861
rclavicle 1.33186e-014 -2.38542e-015
rhumerus -28.7351 -10.5028 -79.2947
rradius 27.392
rwrist -6.68648
rhand -19.2865 10.7542
rfingers 7.12502
rthumb 7.02863 -19.1091
lclavicle 1.33186e-014 -2.38542e-015
lhumerus -34.0653 2.44829 84.5515
lradius 30.3308
lwrist 2.29164
lhand -16.1876 21.452
lfingers 7.12502
lthumb 10.0191 51.1935
rfemur -8.54821 7.48801 20.069
rtibia 32.9131
rfoot -20.3267 8.65563
rtoes 16.7868
lfemur -6.52826 -5.3934 -17.2712
ltibia 28.3362
lfoot -16.3834 -15.5931
ltoes 7.11159
2799
root 29.8752 17.7435 -0.179491 -2.44759 9.26459 358.981
lowerback 4.78177 0.576543 -0.557964
upperback 2.38553 0.762912 1.95602
thorax -0.263847 0.369488 2.2837
lowerneck -14.2111 -3.36773 -9.74457
upperneck 32.7096 -3.64443 4.83313
head 13.7499 -2.11969 3.06251
rclavicle -8.44835e-015 1.19271e-014
rhumerus -28.827 -10.3623 -79.3186
rradius 27.3445
rwrist -6.76687
rhand -19.0111 11.1043
rfingers 7.12502
rthumb 7.29444 -18.7499
lclavicle -8.44835e-015 1.19271e-014
lhumerus -33.8336 2.64818 84.4232
lradius 30.4312
lwrist 2.79401
lhand -16.0283 21.7471
lfingers 7.12502
lthumb 10.1728 51.4811
rfemur -8.79856 7.4763 19.6826
rtibia 33.0035
rfoot -20.3273 9.02759
rtoes 17.0468
lfemur -6.66056 -5.45082 -17.6352
ltibia 28.2924
lfoot -16.2115 -15.1823
ltoes 7.43436
2800
root 29.8931 17.746 -0.193504 -2.31397 9.16148 359.006
lowerback 4.75111 0.531426 -0.493086
upperback 2.36996 0.70553 1.96392
thorax -0.259597 0.34125 2.25837
lowerneck -14.2797 -3.35333 -9.85705
upperneck 32.8087 -3.57495 4.80291
head 13.8055 -2.10897 3.08315
rclavicle 2.78299e-015 -3.18055e-015
rhumerus -28.959 -10.2144 -79.2851
rradius 27.0859
rwrist -6.65061
rhand -18.8591 11.8043
rfingers 7.12502
rthumb 7.44113 -18.0448
lclavicle 2.78299e-015 -3.18055e-015
lhumerus -33.6922 2.81655 84.3573
lradius 30.4933
lwrist 3.52648
lhand -16.7181 21.9424
lfingers 7.12502
lthumb 9.5073 51.7079
rfemur -9.02476 7.39423 19.5286
rtibia 33.0589
rfoot -20.321 9.22828
rtoes 16.887
lfemur -6.80629 -5.44924 -17.7534
ltibia 28.3088
lfoot -16.1151 -14.7018
ltoes 6.77615
2801
root 29.9035 17.7561 -0.208553 -2.14431 9.08613 359.3
lowerback 4.79798 0.494316 -0.867483
upperback 2.33297 0.640892 1.9729
thorax -0.324708 0.306824 2.48108
lowerneck -14.4342 -3.35783 -10.1228
upperneck 33.0091 -3.51538 4.8764
head 13.9327 -2.10926 3.1737
rclavicle 2.52457e-014 1.94809e-014
rhumerus -29.1178 -10.3827 -79.0585
rradius 26.8121
rwrist -5.95868
rhand -18.6957 12.0607
rfingers 7.12502
rthumb 7.59886 -17.7828
lclavicle 2.52457e-014 1.94809e-014
lhumerus -33.4722 3.11016 84.3325
lradius 30.5326
lwrist 3.87437
lhand -17.2401 22.6898
lfingers 7.12502
lthumb 9.00361 52.4777
rfemur -9.22206 7.45032 19.1267
rtibia 33.0385
rfoot -20.6038 9.18559
rtoes 15.1817
lfemur -7.00682 -5.53391 -18.1451
ltibia 28.4281
lfoot -16.0421 -14.0318
ltoes 6.14941
2802
root 29.9118 17.7673 -0.226318 -2.02904 8.86764 359.227
lowerback 4.91014 0.457123 -0.941291
upperback 2.24433 0.589939 2.06583
thorax -0.477262 0.282434 2.61998
lowerneck -14.3455 -3.24104 -10.1485
upperneck 33.0388 -3.33664 4.84675
head 13.9084 -2.04104 3.19629
rclavicle -1.76421e-014 -9.14409e-015
rhumerus -29.3101 -10.2872 -78.9927
rradius 26.6289
rwrist -5.6334
rhand -18.4931 12.1407
rfingers 7.12502
rthumb 7.7944 -17.6957
lclavicle -1.76421e-014 -9.14409e-015
lhumerus -33.4262 3.21152 84.3491
lradius 30.7324
lwrist 4.81381
lhand -18.9666 20.3009
lfingers 7.12502
lthumb 7.33743 50.1537
rfemur -9.44917 7.74828 19.1689
rtibia 33.0069
rfoot -20.8909 8.98761
rtoes 13.6167
lfemur -7.21242 -5.67546 -18.1243
ltibia 28.5624
lfoot -16.1984 -13.2475
ltoes 4.33572
2803
root 29.9279 17.7698 -0.244277 -2.0228 8.64191 359.055
lowerback 5.10774 0.428728 -0.771414
upperback 2.17362 0.561715 2.1309
thorax -0.657645 0.271103 2.59148
lowerneck -14.1239 -3.09535 -10.0406
upperneck 32.9656 -3.14032 4.73762
head 13.8021 -1.95779 3.16331
rclavicle 2.52953e-014 -1.51076e-014
rhumerus -29.5013 -10.0979 -78.9871
rradius 26.41
rwrist -5.5242
rhand -18.1209 13.0469
rfingers 7.12502
rthumb 8.15368 -16.7758
lclavicle 2.52953e-014 -1.51076e-014
lhumerus -33.4869 3.44769 84.1633
lradius 31.7759
lwrist 3.59046
lhand -18.4439 17.4706
lfingers 7.12502
lthumb 7.84191 47.3051
rfemur -9.55545 7.93132 19.2605
rtibia 32.9971
rfoot -20.8425 9.1663
rtoes 14.0791
lfemur -7.29714 -5.70265 -18.0418
ltibia 28.6592
lfoot -16.4585 -12.5795
ltoes 1.89171
2804
root 29.9467 17.7673 -0.259951 -1.94634 8.5449 359.297
lowerback 5.17558 0.464006 -0.929124
upperback 2.17316 0.600778 2.08466
thorax -0.698904 0.290381 2.63004
lowerneck -13.9449 -3.08636 -10.0805
upperneck 32.8294 -3.1272 4.721
head 13.7023 -1.958 3.16247
rclavicle 1.78906e-015 -1.86858e-014
rhumerus -29.7479 -10.1878 -78.8285
rradius 26.2902
rwrist -5.4168
rhand -18.1532 13.8291
rfingers 7.12502
rthumb 8.12251 -15.9948
lclavicle 1.78906e-015 -1.86858e-014
lhumerus -33.2809 3.4659 84.2075
lradius 31.6521
lwrist 3.85194
lhand -17.439 26.0408
lfingers 7.12502
lthumb 8.81175 55.8368
rfemur -9.64783 7.89391 18.8511
rtibia 33.015
rfoot -20.7193 9.5316
rtoes 14.4171
lfemur -7.39487 -5.69511 -18.4337
ltibia 28.7135
lfoot -16.5725 -12.1248
ltoes 0.339206
2805
root 29.9678 17.7682 -0.274307 -1.91266 8.47976 359.564
lowerback 5.23966 0.526545 -1.01645
upperback 2.25176 0.677589 1.96104
thorax -0.657425 0.327775 2.54719
lowerneck -13.9983 -3.15645 -10.0652
upperneck 32.8092 -3.23245 4.73272
head 13.7154 -1.99922 3.14705
rclavicle -2.17669e-014 7.55382e-015
rhumerus -30.0079 -10.4042 -78.816
rradius 26.3547
rwrist -5.94104
rhand -18.8558 12.8624
rfingers 7.12502
rthumb 7.4443 -16.9866
lclavicle -2.17669e-014 7.55382e-015
lhumerus -32.7394 3.27174 84.3336
lradius 30.9039
lwrist 5.11114
lhand -18.5514 26.5736
lfingers 7.12502
lthumb 7.73819 56.412
rfemur -9.71682 7.76673 18.4269
rtibia 33.0524
rfoot -20.6819 9.80623
rtoes 14.0282
lfemur -7.42085 -5.71761 -18.857
ltibia 28.7478
lfoot -16.6439 -11.8387
ltoes -0.261537
